# xmcd
#
# Track frame offsets:
# 150
# 18927
# 32873
# 53274
# 68087
# 84732
# 95873
# 105514
# 106638
# 131342
# 151935
# 171416
# 194227
# 238282
#
# Disc length: 3397 seconds
#
# Revision: 0
# Processed by: cddbd v1.4PL0 Copyright (c) Steve Scherf et al.
# Submitted via: Audion 2.6.0 (http://www.panic.com/audion/)
#
DISCID=b60d430e
DTITLE=Rufus Wainwright - Singles
DYEAR=1900
DGENRE=
TTITLE0=Hallelujah
TTITLE1=Compainte De La Butte
TTITLE2=Banks of the Wabash
TTITLE3=Le Rol D'ys
TTITLE4=Instant Pleasure
TTITLE5=Heartburn
TTITLE6=Goodnight Sweetheart
TTITLE7=Interview
TTITLE8=Foolish Love
TTITLE9=In My Arms
TTITLE10=That Night
TTITLE11=A Bit Of You
TTITLE12=Money Song - Ashes
TTITLE13=What Are You Doing New Years Eve?
EXTD=
EXTT0=
EXTT1=
EXTT2=
EXTT3=
EXTT4=
EXTT5=
EXTT6=
EXTT7=
EXTT8=
EXTT9=
EXTT10=
EXTT11=
EXTT12=
EXTT13=
PLAYORDER=
